# xmcd
#
# Track frame offsets:
#	150
#	18450
#	33095
#	50830
#	64838
#	82028
#	98158
#	122540
#	130450
#	148293
#	163845
#	181118
#	190130
#	210483
#	221348
#
# Disc length: 3163 seconds
#
# Revision: 0
# Processed by: cddbd v1.5.1PL2 Copyright (c) Steve Scherf et al.
# Submitted via: EasyCDDAExtractor 9.0.0.1
#
DISCID=d90c590f
DTITLE=Charlie Pickett - The Wilderness
DYEAR=1900
DGENRE=
TTITLE0=In the wilderness
TTITLE1=Religion or pleasure
TTITLE2=Death letter
TTITLE3=Party till noon
TTITLE4=On the river in 59
TTITLE5=Tell me
TTITLE6=Destry rides again
TTITLE7=John the revelator
TTITLE8=If this is love, can I get my money back
TTITLE9=Four wise men
TTITLE10=Marlboro country
TTITLE11=But I didn't
TTITLE12=Overtown
TTITLE13=Trash fever
TTITLE14=Liked it a lot
EXTD=
EXTT0=
EXTT1=
EXTT2=
EXTT3=
EXTT4=
EXTT5=
EXTT6=
EXTT7=
EXTT8=
EXTT9=
EXTT10=
EXTT11=
EXTT12=
EXTT13=
EXTT14=
PLAYORDER=
